SOURCE: DVD-R

 
http://www.imdb.com/title/tt1704161/


- SAMPLE: Yes

- SUBTITLE: English

- LANGUAGE: English


- NOTE: Rare and BEAUTIFUL movie


DIRECTOR: Pauline Chan


CAST:
--------
Guy Pearce, Zhu Lin, Claudia Karvan, Elaine Jin, Rhys Muldoon, Lincoln Lewis, Kain O'Keeffe, Claire Scott, Clayton Watson


PLOT:
-------
Mei Mei (Zhu Lin) a 16 year old Chinese orphan dreams of nothing more than being part of the 'perfect' family. When her orphanage travels to Australia to par-take in The Australian Choir Festival Mei Mei takes the opportunity to find her Australian Sponsor Dean Randall (Guy Pearce). However what she finds is far from what he depicted. Initially mismatched and disconnected the two begin a journey in search of belonging, family, redemption, love and acceptance.


General
-----------
Format : AVI
Format/Info : Audio Video Interleave
File size : 902 MiB
Duration : 1h 36mn
Overall bit rate : 1303 Kbps
Writing application : VirtualDubMod 1.5.10.3
Writing library : VirtualDubMod build 2550

Video
-----------
Format : MPEG-4 Visual
Format profile : Advanced Simple@L5
Format settings, BVOP : 1
Format settings, QPel : No
Format settings, GMC : No warppoints
Format settings, Matrix : Custom
Codec ID : XVID
Codec ID/Hint : XviD
Duration : 1h 36mn
Bit rate : 1166 Kbps
Width : 672 pixels
Height : 368 pixels
Display aspect ratio : 1.85:1
Frame rate : 25.000 fps
Color space : YUV
Chroma subsampling : 4:2:0
Bit depth : 8 bits
Scan type : Progressive
Compression mode : Lossy
Bits/(Pixel*Frame) : 0.189
Stream size : 806 MiB (89%)
Writing library : XviD 64

Audio
---------
Format : AC-3
Format/Info : Audio Coding 3
Mode extension : CM (complete main)
Format settings, Endianness : Big
Codec ID : 2000
Duration : 1h 36mn
Bit rate mode : Constant
Bit rate : 128 Kbps
Channel(s) : 2 channels
Channel positions : Front: L R
Sampling rate : 48.0 KHz
Bit depth : 16 bits
Compression mode : Lossy
Stream size : 88.5 MiB (10%)
Alignment : Split accross interleaves
Interleave, duration : 40 ms (1.00 video frame)
Interleave, preload duration : 500 ms